<svg width="961" height="238" viewBox="0 0 961 238" fill="none" xmlns="http://www.w3.org/2000/svg">
<path d="M244.791 167.619V60.9526H336.22V76.1907H351.458V121.905H336.22V137.143H275.268V167.619H244.791ZM275.268 121.905H320.982V76.1907H275.268V121.905Z" fill="#EEEEEE"/>
<path d="M412.41 76.1907V60.9526H442.887V76.1907H412.41ZM381.934 167.619V152.381H412.41V106.667H397.172V91.4288H442.887V152.381H473.363V167.619H381.934Z" fill="#EEEEEE"/>
<path d="M488.601 167.619V152.381H503.839V137.143H519.077V121.905H503.839V106.667H488.601V91.4288H519.077V106.667H534.315V121.905H549.553V106.667H564.791V91.4288H595.268V106.667H580.03V121.905H564.791V137.143H580.03V152.381H595.268V167.619H564.791V152.381H549.553V137.143H534.315V152.381H519.077V167.619H488.601Z" fill="#EEEEEE"/>
<path d="M610.506 167.619V60.9526H701.934V76.1907H717.172V106.667H701.934V121.905H717.172V152.381H701.934V167.619H610.506ZM640.982 106.667H686.696V76.1907H640.982V106.667ZM640.982 152.381H686.696V121.905H640.982V152.381Z" fill="#EEEEEE"/>
<path d="M747.649 167.619V152.381H732.41V106.667H747.649V91.4288H823.839V106.667H839.077V152.381H823.839V167.619H747.649ZM762.887 152.381H808.601V106.667H762.887V152.381Z" fill="#EEEEEE"/>
<path d="M869.553 182.857V167.619H930.506V152.381H869.553V137.143H854.315V91.4288H884.791V137.143H930.506V91.4288H960.982V167.619H945.744V182.857H869.553Z" fill="#EEEEEE"/>
<rect x="0.981812" y="183.176" width="76.1905" height="76.1905" transform="rotate(-45 0.981812 183.176)" fill="#317C8C"/>
<rect x="65.6317" y="118.525" width="76.1905" height="76.1905" transform="rotate(-45 65.6317 118.525)" fill="#5AB9A8"/>
<rect x="0.981812" y="53.875" width="76.1905" height="76.1905" transform="rotate(-45 0.981812 53.875)" fill="#C4F0C2"/>
</svg>
